<?xml version="1.0" encoding="UTF-8" standalone="no"?>
<svg
   xmlns:dc="http://purl.org/dc/elements/1.1/"
   xmlns:cc="http://creativecommons.org/ns#"
   xmlns:rdf="http://www.w3.org/1999/02/22-rdf-syntax-ns#"
   xmlns:svg="http://www.w3.org/2000/svg"
   xmlns="http://www.w3.org/2000/svg"
   xmlns:sodipodi="http://sodipodi.sourceforge.net/DTD/sodipodi-0.dtd"
   xmlns:inkscape="http://www.inkscape.org/namespaces/inkscape"
   width="770.08997"
   height="237.479"
   viewBox="0 0 203.75297 62.832988"
   version="1.1"
   id="svg8"
   inkscape:version="1.0.2-2 (e86c870879, 2021-01-15)"
   sodipodi:docname="couplingTypes.svg"
   inkscape:export-filename="D:\Ahmed\Dropbox (GaTech)\PhD\Dissertation\couplingTypes.png"
   inkscape:export-xdpi="300"
   inkscape:export-ydpi="300">
  <defs
     id="defs2">
    <clipPath
       clipPathUnits="userSpaceOnUse"
       id="clipEmfPath1">
      <path
         d="M 2.5584494,-7.6753483 H 1251.2417 V 370.01575 H 2.5584494 Z"
         id="path833" />
    </clipPath>
    <pattern
       id="EMFhbasepattern"
       patternUnits="userSpaceOnUse"
       width="6"
       height="6"
       x="0"
       y="0" />
    <clipPath
       clipPathUnits="userSpaceOnUse"
       id="clipEmfPath1-4">
      <path
         d="M 2.5584494,-7.6753483 H 1251.2417 V 370.01575 H 2.5584494 Z"
         id="path1024" />
    </clipPath>
    <pattern
       id="EMFhbasepattern-9"
       patternUnits="userSpaceOnUse"
       width="6"
       height="6"
       x="0"
       y="0" />
  </defs>
  <sodipodi:namedview
     id="base"
     pagecolor="#ffffff"
     bordercolor="#666666"
     borderopacity="1.0"
     inkscape:pageopacity="0.0"
     inkscape:pageshadow="2"
     inkscape:zoom="1.4"
     inkscape:cx="390.80124"
     inkscape:cy="207.23013"
     inkscape:document-units="mm"
     inkscape:current-layer="layer1"
     inkscape:document-rotation="0"
     showgrid="false"
     units="px"
     fit-margin-top="2"
     fit-margin-left="2"
     fit-margin-right="2"
     fit-margin-bottom="2"
     inkscape:window-width="1920"
     inkscape:window-height="1017"
     inkscape:window-x="-8"
     inkscape:window-y="-8"
     inkscape:window-maximized="1" />
  <metadata
     id="metadata5">
    <rdf:RDF>
      <cc:Work
         rdf:about="">
        <dc:format>image/svg+xml</dc:format>
        <dc:type
           rdf:resource="http://purl.org/dc/dcmitype/StillImage" />
        <dc:title></dc:title>
      </cc:Work>
    </rdf:RDF>
  </metadata>
  <g
     inkscape:label="Layer 1"
     inkscape:groupmode="layer"
     id="layer1"
     transform="translate(-4.7477149,-42.552576)">
    <path
       style="fill:#ffd966;fill-opacity:1;fill-rule:evenodd;stroke:none;stroke-width:0.162326"
       d="m 160.31531,70.735195 c 0,-1.375698 1.12262,-2.498317 2.49832,-2.498317 h 42.66606 c 1.3757,0 2.49183,1.122619 2.49183,2.498317 v 0.720294 c 0,1.375696 -1.11613,2.491829 -2.49183,2.491829 h -42.66606 c -1.3757,0 -2.49832,-1.116133 -2.49832,-2.491829 z"
       id="path1030" />
    <path
       style="fill:#b4c7e7;fill-opacity:1;fill-rule:evenodd;stroke:none;stroke-width:0.162326"
       d="M 60.797928,63.123439 V 76.802537 H 99.784655 V 63.123439 Z"
       id="path1032" />
    <path
       style="fill:#7030a0;fill-opacity:1;fill-rule:evenodd;stroke:none;stroke-width:0.162326"
       d="m 5.9095726,71.439266 4.045976,-2.220907 3.2867474,2.399358 3.538202,-1.865626 1.769911,1.954852 4.425591,-2.754639 3.917815,4.086534 3.286748,-2.931468 3.03367,1.865628 5.056659,-2.044078 3.033672,1.778023 2.907132,-1.954852 V 57.309173 H 5.2768816 v 13.064253 z"
       id="path1034" />
    <text
       xml:space="preserve"
       style="font-style:normal;font-variant:normal;font-weight:400;font-size:3.89584px;line-height:125%;font-family:'Times New Roman';text-align:start;letter-spacing:0px;word-spacing:0px;text-anchor:start;fill:#000000;fill-opacity:1;stroke:none;stroke-width:0.162326"
       x="16.044868"
       y="66.610641"
       id="text1040"><tspan
         sodipodi:role="line"
         x="16.044868"
         y="66.610641"
         id="tspan1038"
         style="stroke-width:0.162326"><tspan
           dx="0"
           dy="0"
           style="font-style:normal;font-variant:normal;font-weight:400;font-size:3.89584px;font-family:'Times New Roman';fill:#ffffff;stroke-width:0.162326"
           id="tspan1036">Transducer</tspan></tspan></text>
    <path
       style="fill:#d6dce5;fill-opacity:1;fill-rule:evenodd;stroke:none;stroke-width:0.162326"
       d="m 6.6331106,72.779273 1.95972,-2.047323 3.1374964,2.991492 1.044752,-2.673525 2.611876,2.203063 3.397063,-2.203063 0.26281,1.888339 0.522375,2.203063 4.441814,-3.461955 2.482095,2.517784 3.137496,-3.77992 1.437343,2.676767 4.179004,-1.414631 0.652159,2.517784 v 1.414632 l 2.744904,-3.776677 2.222529,-0.629446 c 0.171962,0.473707 0.392593,0.924702 0.522375,1.417876 0.09085,0.353659 0.129784,1.099909 0.129784,1.099909 l 3.134251,-1.888339 V 97.334164 H 7.1554866 5.7181426 V 73.25298 Z"
       id="path1042" />
    <path
       style="fill:none;stroke:#2f528f;stroke-width:1.33919px;stroke-linecap:butt;stroke-linejoin:miter;stroke-miterlimit:8;stroke-dasharray:none;stroke-opacity:1"
       clip-path="url(#clipEmfPath1-4)"
       d="m 10.833434,195.48153 12.072684,-12.61236 19.328285,18.42883 6.4361,-16.47002 16.090248,13.57178 20.927317,-13.57178 1.619019,11.63295 3.218049,13.57178 27.363414,-21.32708 15.29074,15.5106 19.32828,-23.28588 8.85463,16.49 25.7444,-8.71472 4.01757,15.5106 v 8.71472 l 16.90975,-23.2659 13.6917,-3.87765 c 1.05936,2.91823 2.41854,5.69655 3.21805,8.73471 0.55966,2.17868 0.79952,6.77589 0.79952,6.77589 l 19.30829,-11.63295 v 157.0848 H 14.051484 5.1968504 V 198.39976 Z"
       id="path1044"
       transform="matrix(0.16232671,0,0,0.16232671,4.8745556,41.047399)" />
    <text
       xml:space="preserve"
       style="font-style:normal;font-variant:normal;font-weight:400;font-size:3.89584px;line-height:125%;font-family:'Times New Roman';text-align:start;letter-spacing:0px;word-spacing:0px;text-anchor:start;fill:#000000;fill-opacity:1;stroke:none;stroke-width:0.162326"
       x="10.740547"
       y="85.320374"
       id="text1050"><tspan
         sodipodi:role="line"
         x="10.740547"
         y="85.320374"
         id="tspan1048"
         style="stroke-width:0.162326"><tspan
           dx="0"
           dy="0"
           style="font-style:normal;font-variant:normal;font-weight:400;font-size:3.89584px;font-family:'Times New Roman';fill:#000000;stroke-width:0.162326"
           id="tspan1046">Metallic enclosure</tspan></tspan></text>
    <path
       style="fill:#7030a0;fill-opacity:1;fill-rule:evenodd;stroke:none;stroke-width:0.162326"
       d="m 61.326792,70.323135 4.045976,-2.219285 3.286744,2.397736 3.539829,-1.865626 1.768289,1.956473 4.425589,-2.754637 3.919437,4.08491 3.286747,-2.929845 3.033667,1.865628 5.055041,-2.044078 3.03367,1.778022 2.907132,-1.956473 V 56.193041 H 60.694101 v 13.065875 z"
       id="path1052" />
    <text
       xml:space="preserve"
       style="font-style:normal;font-variant:normal;font-weight:400;font-size:3.89584px;line-height:125%;font-family:'Times New Roman';text-align:start;letter-spacing:0px;word-spacing:0px;text-anchor:start;fill:#000000;fill-opacity:1;stroke:none;stroke-width:0.162326"
       x="71.462036"
       y="65.509468"
       id="text1058"><tspan
         sodipodi:role="line"
         x="71.462036"
         y="65.509468"
         id="tspan1056"
         style="stroke-width:0.162326"><tspan
           dx="0"
           dy="0"
           style="font-style:normal;font-variant:normal;font-weight:400;font-size:3.89584px;font-family:'Times New Roman';fill:#ffffff;stroke-width:0.162326"
           id="tspan1054">Transducer</tspan></tspan></text>
    <path
       style="fill:#d6dce5;fill-opacity:1;fill-rule:evenodd;stroke:none;stroke-width:0.162326"
       d="m 61.453331,72.779273 1.959718,-2.047323 3.1375,2.991492 1.044748,-2.673525 2.611876,2.203063 3.397064,-2.203063 0.262812,1.888339 0.522374,2.203063 4.441811,-3.461955 2.482099,2.517784 3.137496,-3.77992 1.437344,2.676767 4.179002,-1.414631 0.652158,2.517784 v 1.414632 l 2.744899,-3.776677 2.222531,-0.629446 c 0.171964,0.473707 0.392591,0.924702 0.522374,1.417876 0.09085,0.353659 0.129784,1.099909 0.129784,1.099909 l 3.134256,-1.888339 V 97.334164 H 61.975706 60.538361 V 73.25298 Z"
       id="path1060" />
    <path
       style="fill:none;stroke:#2f528f;stroke-width:0.217386px;stroke-linecap:butt;stroke-linejoin:miter;stroke-miterlimit:8;stroke-dasharray:none;stroke-opacity:1"
       d="m 61.453331,72.779273 1.959718,-2.047323 3.1375,2.991492 1.044748,-2.673525 2.611876,2.203063 3.397064,-2.203063 0.262812,1.888339 0.522374,2.203063 4.441811,-3.461955 2.482099,2.517784 3.137496,-3.77992 1.437344,2.676767 4.179002,-1.414631 0.652158,2.517784 v 1.414632 l 2.744899,-3.776677 2.222531,-0.629446 c 0.171964,0.473707 0.392591,0.924702 0.522374,1.417876 0.09085,0.353659 0.129784,1.099909 0.129784,1.099909 l 3.134256,-1.888339 V 97.334164 H 61.975706 60.538361 V 73.25298 Z"
       id="path1062" />
    <text
       xml:space="preserve"
       style="font-style:normal;font-variant:normal;font-weight:400;font-size:3.89584px;line-height:125%;font-family:'Times New Roman';text-align:start;letter-spacing:0px;word-spacing:0px;text-anchor:start;fill:#000000;fill-opacity:1;stroke:none;stroke-width:0.162326"
       x="65.563881"
       y="85.320374"
       id="text1068"><tspan
         sodipodi:role="line"
         x="65.563881"
         y="85.320374"
         id="tspan1066"
         style="stroke-width:0.162326"><tspan
           dx="0"
           dy="0"
           style="font-style:normal;font-variant:normal;font-weight:400;font-size:3.89584px;font-family:'Times New Roman';fill:#000000;stroke-width:0.162326"
           id="tspan1064">Metallic enclosure</tspan></tspan></text>
    <path
       style="fill:#7030a0;fill-opacity:1;fill-rule:evenodd;stroke:none;stroke-width:0.162326"
       d="m 116.85108,62.072198 4.04273,-2.219283 3.28999,2.39449 3.53658,-1.862382 1.77154,1.95323 4.42558,-2.751394 3.91944,4.081666 3.28351,-2.926599 3.03692,1.862383 5.05503,-2.044079 3.03043,1.778023 2.90713,-1.95323 V 47.938861 h -38.93481 v 13.06912 z"
       id="path1070" />
    <text
       xml:space="preserve"
       style="font-style:normal;font-variant:normal;font-weight:400;font-size:3.89584px;line-height:125%;font-family:'Times New Roman';text-align:start;letter-spacing:0px;word-spacing:0px;text-anchor:start;fill:#000000;fill-opacity:1;stroke:none;stroke-width:0.162326"
       x="126.98938"
       y="57.240108"
       id="text1076"><tspan
         sodipodi:role="line"
         x="126.98938"
         y="57.240108"
         id="tspan1074"
         style="stroke-width:0.162326"><tspan
           dx="0"
           dy="0"
           style="font-style:normal;font-variant:normal;font-weight:400;font-size:3.89584px;font-family:'Times New Roman';fill:#ffffff;stroke-width:0.162326"
           id="tspan1072">Transducer</tspan></tspan></text>
    <path
       style="fill:#d6dce5;fill-opacity:1;fill-rule:evenodd;stroke:none;stroke-width:0.162326"
       d="m 117.13011,72.779273 1.95972,-2.044078 3.14074,2.991492 1.04475,-2.680013 2.60864,2.206306 3.4003,-2.206306 0.25957,1.894827 0.52562,2.199818 4.43857,-3.45871 2.48533,2.517784 3.13426,-3.783165 1.44059,2.680012 4.179,-1.414631 0.64892,2.517784 v 1.414632 l 2.7449,-3.776677 2.22577,-0.629446 c 0.16872,0.473707 0.38936,0.921457 0.51913,1.414631 0.0908,0.356904 0.12979,1.103154 0.12979,1.103154 l 3.13425,-1.888339 v 25.495816 h -37.49423 -1.44058 V 73.25298 Z"
       id="path1078" />
    <path
       style="fill:none;stroke:#2f528f;stroke-width:0.214141px;stroke-linecap:butt;stroke-linejoin:miter;stroke-miterlimit:8;stroke-dasharray:none;stroke-opacity:1"
       d="m 117.13011,72.779273 1.95972,-2.044078 3.14074,2.991492 1.04475,-2.680013 2.60864,2.206306 3.4003,-2.206306 0.25957,1.894827 0.52562,2.199818 4.43857,-3.45871 2.48533,2.517784 3.13426,-3.783165 1.44059,2.680012 4.179,-1.414631 0.64892,2.517784 v 1.414632 l 2.7449,-3.776677 2.22577,-0.629446 c 0.16872,0.473707 0.38936,0.921457 0.51913,1.414631 0.0908,0.356904 0.12979,1.103154 0.12979,1.103154 l 3.13425,-1.888339 v 25.495816 h -37.49423 -1.44058 V 73.25298 Z"
       id="path1080" />
    <text
       xml:space="preserve"
       style="font-style:normal;font-variant:normal;font-weight:400;font-size:3.89584px;line-height:125%;font-family:'Times New Roman';text-align:start;letter-spacing:0px;word-spacing:0px;text-anchor:start;fill:#000000;fill-opacity:1;stroke:none;stroke-width:0.162326"
       x="121.25244"
       y="85.320374"
       id="text1086"><tspan
         sodipodi:role="line"
         x="121.25244"
         y="85.320374"
         id="tspan1084"
         style="stroke-width:0.162326"><tspan
           dx="0"
           dy="0"
           style="font-style:normal;font-variant:normal;font-weight:400;font-size:3.89584px;font-family:'Times New Roman';fill:#000000;stroke-width:0.162326"
           id="tspan1082">Metallic enclosure</tspan></tspan></text>
    <path
       style="fill:#7030a0;fill-opacity:1;fill-rule:evenodd;stroke:none;stroke-width:0.162326"
       d="m 165.31195,69.521727 4.04273,-2.219285 3.28998,2.39449 3.53659,-1.862381 1.77153,1.953231 4.4256,-2.751395 3.91942,4.081667 3.28352,-2.9266 3.0369,1.862381 5.05505,-2.044078 3.03043,1.778025 2.90713,-1.953231 V 55.388389 h -38.93482 v 13.069119 z"
       id="path1088" />
    <text
       xml:space="preserve"
       style="font-style:normal;font-variant:normal;font-weight:400;font-size:3.89584px;line-height:125%;font-family:'Times New Roman';text-align:start;letter-spacing:0px;word-spacing:0px;text-anchor:start;fill:#000000;fill-opacity:1;stroke:none;stroke-width:0.162326"
       x="175.4416"
       y="64.697281"
       id="text1094"><tspan
         sodipodi:role="line"
         x="175.4416"
         y="64.697281"
         id="tspan1092"
         style="stroke-width:0.162326"><tspan
           dx="0"
           dy="0"
           style="font-style:normal;font-variant:normal;font-weight:400;font-size:3.89584px;font-family:'Times New Roman';fill:#ffffff;stroke-width:0.162326"
           id="tspan1090">Transducer</tspan></tspan></text>
    <path
       style="fill:#d6dce5;fill-opacity:1;fill-rule:evenodd;stroke:none;stroke-width:0.162326"
       d="m 165.59098,72.779273 1.95972,-2.044078 3.14074,2.985002 1.04475,-2.673523 2.60864,2.206306 3.40031,-2.206306 0.25956,1.888337 0.52561,2.199817 4.43858,-3.458708 2.48534,2.517783 3.13425,-3.776675 1.44058,2.673522 4.17901,-1.41463 0.64891,2.517783 v 1.414632 l 2.7449,-3.770187 2.22577,-0.629446 c 0.16873,0.467218 0.38936,0.921457 0.51914,1.414631 0.0908,0.350414 0.12978,1.096664 0.12978,1.096664 l 3.13426,-1.881849 V 97.308206 H 166.1166 164.67601 V 73.25298 Z"
       id="path1096" />
    <path
       style="fill:none;stroke:#2f528f;stroke-width:0.214141px;stroke-linecap:butt;stroke-linejoin:miter;stroke-miterlimit:8;stroke-dasharray:none;stroke-opacity:1"
       d="m 165.59098,72.779273 1.95972,-2.044078 3.14074,2.985002 1.04475,-2.673523 2.60864,2.206306 3.40031,-2.206306 0.25956,1.888337 0.52561,2.199817 4.43858,-3.458708 2.48534,2.517783 3.13425,-3.776675 1.44058,2.673522 4.17901,-1.41463 0.64891,2.517783 v 1.414632 l 2.7449,-3.770187 2.22577,-0.629446 c 0.16873,0.467218 0.38936,0.921457 0.51914,1.414631 0.0908,0.350414 0.12978,1.096664 0.12978,1.096664 l 3.13426,-1.881849 V 97.308206 H 166.1166 164.67601 V 73.25298 Z"
       id="path1098" />
    <text
       xml:space="preserve"
       style="font-style:normal;font-variant:normal;font-weight:400;font-size:3.89584px;line-height:125%;font-family:'Times New Roman';text-align:start;letter-spacing:0px;word-spacing:0px;text-anchor:start;fill:#000000;fill-opacity:1;stroke:none;stroke-width:0.162326"
       x="169.70467"
       y="85.308708"
       id="text1104"><tspan
         sodipodi:role="line"
         x="169.70467"
         y="85.308708"
         id="tspan1102"
         style="stroke-width:0.162326"><tspan
           dx="0"
           dy="0"
           style="font-style:normal;font-variant:normal;font-weight:400;font-size:3.89584px;font-family:'Times New Roman';fill:#000000;stroke-width:0.162326"
           id="tspan1100">Metallic enclosure</tspan></tspan></text>
    <text
       xml:space="preserve"
       style="font-style:normal;font-variant:normal;font-weight:bold;font-stretch:normal;font-size:4.23333px;line-height:125%;font-family:'Times New Roman';-inkscape-font-specification:'Times New Roman,  Bold';text-align:start;letter-spacing:0px;word-spacing:0px;text-anchor:start;fill:#000000;fill-opacity:1;stroke:none;stroke-width:0.162326"
       x="14.540205"
       y="103.81721"
       id="text1110"><tspan
         sodipodi:role="line"
         x="14.540205"
         y="103.81721"
         id="tspan1108"
         style="font-style:normal;font-variant:normal;font-weight:bold;font-stretch:normal;font-size:4.23333px;font-family:'Times New Roman';-inkscape-font-specification:'Times New Roman,  Bold';stroke-width:0.162326"><tspan
           dx="0"
           dy="0"
           style="font-style:normal;font-variant:normal;font-weight:bold;font-stretch:normal;font-size:4.23333px;font-family:'Times New Roman';-inkscape-font-specification:'Times New Roman,  Bold';fill:#000000;stroke-width:0.162326"
           id="tspan1106">Dry contact</tspan></tspan></text>
    <text
       xml:space="preserve"
       style="font-style:normal;font-variant:normal;font-weight:bold;font-stretch:normal;font-size:4.23333px;line-height:125%;font-family:'Times New Roman';-inkscape-font-specification:'Times New Roman,  Bold';text-align:start;letter-spacing:0px;word-spacing:0px;text-anchor:start;fill:#000000;fill-opacity:1;stroke:none;stroke-width:0.162326"
       x="65.592178"
       y="103.94276"
       id="text1116"><tspan
         sodipodi:role="line"
         x="65.592178"
         y="103.94276"
         id="tspan1114"
         style="font-style:normal;font-variant:normal;font-weight:bold;font-stretch:normal;font-size:4.23333px;font-family:'Times New Roman';-inkscape-font-specification:'Times New Roman,  Bold';stroke-width:0.162326"><tspan
           dx="0"
           dy="0"
           style="font-style:normal;font-variant:normal;font-weight:bold;font-stretch:normal;font-size:4.23333px;font-family:'Times New Roman';-inkscape-font-specification:'Times New Roman,  Bold';fill:#000000;stroke-width:0.162326"
           id="tspan1112">Liquid coupling</tspan></tspan></text>
    <text
       xml:space="preserve"
       style="font-style:normal;font-variant:normal;font-weight:bold;font-stretch:normal;font-size:4.23333px;line-height:125%;font-family:'Times New Roman';-inkscape-font-specification:'Times New Roman,  Bold';text-align:start;letter-spacing:0px;word-spacing:0px;text-anchor:start;fill:#000000;fill-opacity:1;stroke:none;stroke-width:0.162326"
       x="151.0934"
       y="103.94276"
       id="text1122"><tspan
         sodipodi:role="line"
         x="151.0934"
         y="103.94276"
         id="tspan1120"
         style="font-style:normal;font-variant:normal;font-weight:bold;font-stretch:normal;font-size:4.23333px;font-family:'Times New Roman';-inkscape-font-specification:'Times New Roman,  Bold';stroke-width:0.162326"><tspan
           dx="0"
           dy="0"
           style="font-style:normal;font-variant:normal;font-weight:bold;font-stretch:normal;font-size:4.23333px;font-family:'Times New Roman';-inkscape-font-specification:'Times New Roman,  Bold';fill:#000000;stroke-width:0.162326"
           id="tspan1118">Dry coupling</tspan></tspan></text>
    <path
       style="fill:#ffd966;fill-opacity:1;fill-rule:evenodd;stroke:none;stroke-width:0.162326"
       d="m 119.27801,66.575659 c 0,-1.648241 1.33677,-2.985003 2.98501,-2.985003 h 26.84555 c 1.64825,0 2.97852,1.336762 2.97852,2.985003 v 0.863055 c 0,1.64824 -1.33027,2.978514 -2.97852,2.978514 h -26.84555 c -1.64824,0 -2.98501,-1.330274 -2.98501,-2.978514 z"
       id="path1124" />
    <text
       xml:space="preserve"
       style="font-style:normal;font-variant:normal;font-weight:400;font-size:3.89584px;line-height:125%;font-family:'Times New Roman';text-align:start;letter-spacing:0px;word-spacing:0px;text-anchor:start;fill:#000000;fill-opacity:1;stroke:none;stroke-width:0.162326"
       x="125.57636"
       y="68.446175"
       id="text1130"><tspan
         sodipodi:role="line"
         x="125.57636"
         y="68.446175"
         id="tspan1128"
         style="stroke-width:0.162326"><tspan
           dx="0"
           dy="0"
           style="font-style:normal;font-variant:normal;font-weight:400;font-size:3.89584px;font-family:'Times New Roman';fill:#ffffff;stroke-width:0.162326"
           id="tspan1126">Soft material</tspan></tspan></text>
    <path
       style="fill:#000000;fill-opacity:1;fill-rule:evenodd;stroke:none;stroke-width:0.162326"
       d="m 180.01633,51.209385 h 2.0895 v -8.020572 h 4.179 v 8.020572 h 2.0895 l -4.179,4.179004 z"
       id="path1132" />
    <path
       style="fill:none;stroke:#000000;stroke-width:0.214141px;stroke-linecap:butt;stroke-linejoin:miter;stroke-miterlimit:8;stroke-dasharray:none;stroke-opacity:1"
       d="m 180.01633,51.209385 h 2.0895 v -8.020572 h 4.179 v 8.020572 h 2.0895 l -4.179,4.179004 z"
       id="path1134" />
    <path
       style="fill:none;stroke:#000000;stroke-width:2.99818px;stroke-linecap:butt;stroke-linejoin:miter;stroke-miterlimit:8;stroke-dasharray:none;stroke-opacity:1"
       clip-path="url(#clipEmfPath1-4)"
       d="M 291.50333,13.271956 V 432.37026"
       id="path1136"
       transform="matrix(0.16232671,0,0,0.16232671,4.8745556,41.047399)"
       sodipodi:nodetypes="cc" />
    <path
       style="fill:none;stroke:#000000;stroke-width:2.99818px;stroke-linecap:butt;stroke-linejoin:miter;stroke-miterlimit:8;stroke-dasharray:none;stroke-opacity:1"
       clip-path="url(#clipEmfPath1-4)"
       d="M 635.13507,13.271956 V 432.37026"
       id="path1138"
       transform="matrix(0.16232671,0,0,0.16232671,4.8745556,41.047399)"
       sodipodi:nodetypes="cc" />
  </g>
</svg>
