<?xml version="1.0" encoding="UTF-8" standalone="no"?>
<svg
   version="1.1"
   id="svg1158"
   xml:space="preserve"
   width="845.98645"
   height="440.97711"
   viewBox="0 0 845.98646 440.97712"
   sodipodi:docname="SimultaneousCircuit2.svg"
   inkscape:version="1.1 (c68e22c387, 2021-05-23)"
   inkscape:export-filename="D:\Dropbox (GaTech)\PhD\Dissertation\Chapter 5\SimultaneousCircuit.png"
   inkscape:export-xdpi="300"
   inkscape:export-ydpi="300"
   xmlns:inkscape="http://www.inkscape.org/namespaces/inkscape"
   xmlns:sodipodi="http://sodipodi.sourceforge.net/DTD/sodipodi-0.dtd"
   xmlns="http://www.w3.org/2000/svg"
   xmlns:svg="http://www.w3.org/2000/svg"
   xmlns:rdf="http://www.w3.org/1999/02/22-rdf-syntax-ns#"
   xmlns:cc="http://creativecommons.org/ns#"
   xmlns:dc="http://purl.org/dc/elements/1.1/"><metadata
     id="metadata177"><rdf:RDF><cc:Work
         rdf:about=""><dc:format>image/svg+xml</dc:format><dc:type
           rdf:resource="http://purl.org/dc/dcmitype/StillImage" /></cc:Work></rdf:RDF></metadata><defs
     id="defs1162"><marker
       style="overflow:visible"
       id="Arrow1Mend"
       refX="0"
       refY="0"
       orient="auto"
       inkscape:stockid="Arrow1Mend"
       inkscape:isstock="true"><path
         transform="matrix(-0.4,0,0,-0.4,-4,0)"
         style="fill:context-stroke;fill-rule:evenodd;stroke:context-stroke;stroke-width:1pt"
         d="M 0,0 5,-5 -12.5,0 5,5 Z"
         id="path20503" /></marker><marker
       style="overflow:visible"
       id="marker23552"
       refX="0"
       refY="0"
       orient="auto"
       inkscape:stockid="Arrow1Lend"
       inkscape:isstock="true"><path
         transform="matrix(-0.8,0,0,-0.8,-10,0)"
         style="fill:context-stroke;fill-rule:evenodd;stroke:context-stroke;stroke-width:1pt"
         d="M 0,0 5,-5 -12.5,0 5,5 Z"
         id="path23550" /></marker><marker
       style="overflow:visible"
       id="Arrow1Lend"
       refX="0"
       refY="0"
       orient="auto"
       inkscape:stockid="Arrow1Lend"
       inkscape:isstock="true"><path
         transform="matrix(-0.8,0,0,-0.8,-10,0)"
         style="fill:context-stroke;fill-rule:evenodd;stroke:context-stroke;stroke-width:1pt"
         d="M 0,0 5,-5 -12.5,0 5,5 Z"
         id="path20497" /></marker><marker
       style="overflow:visible"
       id="marker1149"
       refX="0"
       refY="0"
       orient="auto"
       inkscape:stockid="Arrow1Lend"
       inkscape:isstock="true"><path
         transform="matrix(-0.8,0,0,-0.8,-10,0)"
         style="fill:#000000;fill-opacity:1;fill-rule:evenodd;stroke:#000000;stroke-width:1pt;stroke-opacity:1"
         d="M 0,0 5,-5 -12.5,0 5,5 Z"
         id="path1147" /></marker><marker
       style="overflow:visible"
       id="marker1139"
       refX="0"
       refY="0"
       orient="auto"
       inkscape:stockid="Arrow1Lend"
       inkscape:isstock="true"><path
         transform="matrix(-0.8,0,0,-0.8,-10,0)"
         style="fill:#000000;fill-opacity:1;fill-rule:evenodd;stroke:#000000;stroke-width:1pt;stroke-opacity:1"
         d="M 0,0 5,-5 -12.5,0 5,5 Z"
         id="path1137" /></marker></defs><sodipodi:namedview
     id="namedview1160"
     pagecolor="#ffffff"
     bordercolor="#666666"
     borderopacity="1.0"
     inkscape:pageshadow="2"
     inkscape:pageopacity="0.0"
     inkscape:pagecheckerboard="0"
     showgrid="true"
     inkscape:zoom="0.484231"
     inkscape:cx="313.89977"
     inkscape:cy="104.28907"
     inkscape:window-width="1366"
     inkscape:window-height="705"
     inkscape:window-x="1912"
     inkscape:window-y="588"
     inkscape:window-maximized="1"
     inkscape:current-layer="g1166"
     lock-margins="true"
     fit-margin-top="2"
     fit-margin-left="2"
     fit-margin-right="2"
     fit-margin-bottom="2"
     inkscape:object-nodes="true"
     inkscape:document-rotation="0"><inkscape:grid
       type="xygrid"
       id="grid1669"
       originx="1.0000004"
       originy="0.99999802" /></sodipodi:namedview><g
     id="g1164"
     inkscape:groupmode="layer"
     inkscape:label="SimultaneousCircuit"
     transform="matrix(1.3333333,0,0,1.3333333,1.0000004,28.619198)"><g
       id="g1166"><g
         id="g1168"
         transform="scale(1,-1)"><path
           d="m 449.051,-99.332 h 88.601 v -8.051"
           style="fill:none;stroke:#c71585;stroke-width:1.20811;stroke-linecap:butt;stroke-linejoin:bevel;stroke-miterlimit:10;stroke-dasharray:none;stroke-opacity:1"
           id="path1170" /></g><g
         id="g1172"
         transform="scale(1,-1)"><path
           d="m 255.734,-244.293 v -55.105 H 368.5"
           style="fill:none;stroke:#c71585;stroke-width:1.20811;stroke-linecap:butt;stroke-linejoin:bevel;stroke-miterlimit:10;stroke-dasharray:none;stroke-opacity:1"
           id="path1174"
           sodipodi:nodetypes="ccc" /></g><g
         id="g1176"
         transform="scale(1,-1)"><path
           d="m 167.133,-99.332 v -16.106 m 0,-64.425 v -16.11 m 185.258,96.641 v -56.371 m 64.441,56.371 v -56.371 m 0,56.371 h 32.219 m 0,0 v -8.051 m 88.601,-64.429 v -16.106 m -489.054,88.047 54.093,0.539 m 346.36,-72.48 v -16.106 m -193.317,88.586 v -8.051 m 0,-64.429 v -8.051 m 0,80.531 h 40.274 m -128.875,0 h 88.601 m 64.438,0 h 32.219"
           style="fill:none;stroke:#c71585;stroke-width:1.20811;stroke-linecap:butt;stroke-linejoin:bevel;stroke-miterlimit:10;stroke-dasharray:none;stroke-opacity:1"
           id="path1178" /></g><g
         id="g1180"
         transform="matrix(0,-0.999819,-1,0,0,0)"><path
           d="m -146.952,-457.023 c 2.039,2.039 3.301,4.859 3.301,7.972 0,3.117 -1.262,5.934 -3.301,7.977"
           style="fill:none;stroke:#0000cd;stroke-width:1.20822;stroke-linecap:butt;stroke-linejoin:bevel;stroke-miterlimit:10;stroke-dasharray:none;stroke-opacity:1"
           id="path1182" /></g><g
         id="g1184"
         transform="matrix(0,-0.999819,-1,0,0,0)"><path
           d="m -135.595,-449.051 h 28.193 m -64.442,0 h 28.193 m 7.654,8.055 v -16.109"
           style="fill:none;stroke:#0000cd;stroke-width:1.20822;stroke-linecap:butt;stroke-linejoin:bevel;stroke-miterlimit:10;stroke-dasharray:none;stroke-opacity:1"
           id="path1186" /></g><g
         id="g1188"
         transform="matrix(0,-0.999819,-1,0,0,0)"><path
           d="m -167.011,-447.035 -2.012,-4.43"
           style="fill:none;stroke:#0000cd;stroke-width:1.20822;stroke-linecap:butt;stroke-linejoin:bevel;stroke-miterlimit:10;stroke-dasharray:none;stroke-opacity:1"
           id="path1190" /></g><g
         id="g1192"
         transform="scale(-1,0.999819)"><path
           d="m -391.941,147.757 c 2.039,2.044 3.304,4.861 3.304,7.974 0,3.114 -1.265,5.935 -3.304,7.974"
           style="fill:none;stroke:#0000cd;stroke-width:1.20822;stroke-linecap:butt;stroke-linejoin:bevel;stroke-miterlimit:10;stroke-dasharray:none;stroke-opacity:1"
           id="path1194" /></g><g
         id="g1196"
         transform="scale(-1,0.999819)"><path
           d="m -380.582,155.731 h 28.191 m -64.441,0 h 28.195 m 7.649,8.057 v -16.109"
           style="fill:none;stroke:#0000cd;stroke-width:1.20822;stroke-linecap:butt;stroke-linejoin:bevel;stroke-miterlimit:10;stroke-dasharray:none;stroke-opacity:1"
           id="path1198" /></g><g
         id="g1200"
         transform="scale(-1,0.999819)"><path
           d="m -411.996,157.747 -2.016,-4.43"
           style="fill:none;stroke:#0000cd;stroke-width:1.20822;stroke-linecap:butt;stroke-linejoin:bevel;stroke-miterlimit:10;stroke-dasharray:none;stroke-opacity:1"
           id="path1202" /></g><g
         id="g1204"
         transform="scale(1,-0.999819)"><path
           d="m 119.609,-95.322 c 0,0.891 -0.722,1.61 -1.613,1.61 -0.887,0 -1.609,-0.719 -1.609,-1.61 0,-0.891 0.722,-1.61 1.609,-1.61 0.891,0 1.613,0.719 1.613,1.61 z"
           style="fill:none;stroke:#0000cd;stroke-width:1.20822;stroke-linecap:butt;stroke-linejoin:bevel;stroke-miterlimit:10;stroke-dasharray:none;stroke-opacity:1"
           id="path1206" /></g><g
         id="g1208"
         transform="scale(1,-0.999819)"><path
           d="m 149.41,-99.35 c 0,2.668 -2.164,4.833 -4.832,4.833 -2.668,0 -4.832,-2.165 -4.832,-4.833"
           style="fill:none;stroke:#0000cd;stroke-width:1.20822;stroke-linecap:butt;stroke-linejoin:bevel;stroke-miterlimit:10;stroke-dasharray:none;stroke-opacity:1"
           id="path1210" /></g><g
         id="g1212"
         transform="scale(1,-0.999819)"><path
           d="m 139.746,-99.35 c 0,2.668 -2.164,4.833 -4.832,4.833 -2.672,0 -4.836,-2.165 -4.836,-4.833"
           style="fill:none;stroke:#0000cd;stroke-width:1.20822;stroke-linecap:butt;stroke-linejoin:bevel;stroke-miterlimit:10;stroke-dasharray:none;stroke-opacity:1"
           id="path1214" /></g><g
         id="g1216"
         transform="scale(1,-0.999819)"><path
           d="m 130.078,-99.35 c 0,2.668 -2.164,4.833 -4.832,4.833 -2.668,0 -4.832,-2.165 -4.832,-4.833"
           style="fill:none;stroke:#0000cd;stroke-width:1.20822;stroke-linecap:butt;stroke-linejoin:bevel;stroke-miterlimit:10;stroke-dasharray:none;stroke-opacity:1"
           id="path1218" /></g><g
         id="g1220"
         transform="scale(1,-0.999819)"><path
           d="m 149.41,-99.35 h 1.613 m -32.218,0 h 1.609 m 30.609,0 h 16.11 m -64.442,0 h 16.114"
           style="fill:none;stroke:#0000cd;stroke-width:1.20822;stroke-linecap:butt;stroke-linejoin:bevel;stroke-miterlimit:10;stroke-dasharray:none;stroke-opacity:1"
           id="path1222" /></g><g
         id="g1224"
         transform="scale(1,-0.999819)"><path
           d="m 106.316,-96.932 -1.609,-4.833"
           style="fill:none;stroke:#0000cd;stroke-width:1.20822;stroke-linecap:butt;stroke-linejoin:bevel;stroke-miterlimit:10;stroke-dasharray:none;stroke-opacity:1"
           id="path1226" /></g><g
         id="g1228"
         transform="matrix(0,0.999819,1,0,0,0)"><path
           d="m 200.036,455.492 v -12.887 m 4.024,11.278 v -9.668 m -16.108,4.836 h 8.056 m 0,8.054 v -16.109"
           style="fill:none;stroke:#0000cd;stroke-width:1.20822;stroke-linecap:butt;stroke-linejoin:bevel;stroke-miterlimit:10;stroke-dasharray:none;stroke-opacity:1"
           id="path1230" /></g><g
         id="g1232"
         transform="matrix(0,0.999819,1,0,0,0)"><path
           d="m 208.089,173.574 v -12.886 m 4.028,11.277 v -9.668 m -16.109,4.836 h 8.052 m 0,8.055 v -16.11"
           style="fill:none;stroke:#0000cd;stroke-width:1.20822;stroke-linecap:butt;stroke-linejoin:bevel;stroke-miterlimit:10;stroke-dasharray:none;stroke-opacity:1"
           id="path1234" /></g><g
         id="g1236"
         transform="matrix(0,0.999819,1,0,0,0)"><path
           d="m 196.813,259.762 c 0,0.89 -0.723,1.609 -1.61,1.609 -0.89,0 -1.613,-0.719 -1.613,-1.609 0,-0.891 0.723,-1.61 1.613,-1.61 0.887,0 1.61,0.719 1.61,1.61 z"
           style="fill:none;stroke:#0000cd;stroke-width:1.20822;stroke-linecap:butt;stroke-linejoin:bevel;stroke-miterlimit:10;stroke-dasharray:none;stroke-opacity:1"
           id="path1238" /></g><g
         id="g1240"
         transform="matrix(0,0.999819,1,0,0,0)"><path
           d="m 226.615,255.734 c 0,2.668 -2.164,4.832 -4.833,4.832 -2.668,0 -4.832,-2.164 -4.832,-4.832"
           style="fill:none;stroke:#0000cd;stroke-width:1.20822;stroke-linecap:butt;stroke-linejoin:bevel;stroke-miterlimit:10;stroke-dasharray:none;stroke-opacity:1"
           id="path1242" /></g><g
         id="g1244"
         transform="matrix(0,0.999819,1,0,0,0)"><path
           d="m 216.95,255.734 c 0,2.668 -2.165,4.832 -4.833,4.832 -2.669,0 -4.833,-2.164 -4.833,-4.832"
           style="fill:none;stroke:#0000cd;stroke-width:1.20822;stroke-linecap:butt;stroke-linejoin:bevel;stroke-miterlimit:10;stroke-dasharray:none;stroke-opacity:1"
           id="path1246" /></g><g
         id="g1248"
         transform="matrix(0,0.999819,1,0,0,0)"><path
           d="m 207.284,255.734 c 0,2.668 -2.165,4.832 -4.833,4.832 -2.669,0 -4.833,-2.164 -4.833,-4.832"
           style="fill:none;stroke:#0000cd;stroke-width:1.20822;stroke-linecap:butt;stroke-linejoin:bevel;stroke-miterlimit:10;stroke-dasharray:none;stroke-opacity:1"
           id="path1250" /></g><g
         id="g1252"
         transform="matrix(0,0.999819,1,0,0,0)"><path
           d="m 226.615,255.734 h 1.61 m -32.217,0 h 1.61 m 30.607,0 h 16.112 m -64.441,0 h 16.112"
           style="fill:none;stroke:#0000cd;stroke-width:1.20822;stroke-linecap:butt;stroke-linejoin:bevel;stroke-miterlimit:10;stroke-dasharray:none;stroke-opacity:1"
           id="path1254" /></g><g
         id="g1256"
         transform="matrix(0,0.999819,1,0,0,0)"><path
           d="m 183.522,258.152 -1.61,-4.836"
           style="fill:none;stroke:#0000cd;stroke-width:1.20822;stroke-linecap:butt;stroke-linejoin:bevel;stroke-miterlimit:10;stroke-dasharray:none;stroke-opacity:1"
           id="path1258" /></g><g
         id="g1260"
         transform="matrix(0,0.999819,1,0,0,0)"><path
           d="m 132.294,247.762 c 2.039,2.039 3.301,4.859 3.301,7.972 0,3.114 -1.262,5.934 -3.301,7.973"
           style="fill:none;stroke:#0000cd;stroke-width:1.20822;stroke-linecap:butt;stroke-linejoin:bevel;stroke-miterlimit:10;stroke-dasharray:none;stroke-opacity:1"
           id="path1262" /></g><g
         id="g1264"
         transform="matrix(0,0.999819,1,0,0,0)"><path
           d="m 143.651,255.734 h 28.193 m -64.442,0 h 28.193 m 7.654,8.055 V 247.68"
           style="fill:none;stroke:#0000cd;stroke-width:1.20822;stroke-linecap:butt;stroke-linejoin:bevel;stroke-miterlimit:10;stroke-dasharray:none;stroke-opacity:1"
           id="path1266" /></g><g
         id="g1268"
         transform="matrix(0,0.999819,1,0,0,0)"><path
           d="m 112.235,257.746 -2.012,-4.43"
           style="fill:none;stroke:#0000cd;stroke-width:1.20822;stroke-linecap:butt;stroke-linejoin:bevel;stroke-miterlimit:10;stroke-dasharray:none;stroke-opacity:1"
           id="path1270" /></g><g
         id="g1272"
         transform="scale(1,-0.999819)"><path
           d="m 369.309,-95.322 c 0,0.891 -0.723,1.61 -1.614,1.61 -0.89,0 -1.609,-0.719 -1.609,-1.61 0,-0.891 0.719,-1.61 1.609,-1.61 0.891,0 1.614,0.719 1.614,1.61 z"
           style="fill:none;stroke:#0000cd;stroke-width:1.20822;stroke-linecap:butt;stroke-linejoin:bevel;stroke-miterlimit:10;stroke-dasharray:none;stroke-opacity:1"
           id="path1274" /></g><g
         id="g1276"
         transform="scale(1,-0.999819)"><path
           d="m 399.109,-99.35 c 0,2.668 -2.164,4.833 -4.832,4.833 -2.668,0 -4.832,-2.165 -4.832,-4.833"
           style="fill:none;stroke:#0000cd;stroke-width:1.20822;stroke-linecap:butt;stroke-linejoin:bevel;stroke-miterlimit:10;stroke-dasharray:none;stroke-opacity:1"
           id="path1278" /></g><g
         id="g1280"
         transform="scale(1,-0.999819)"><path
           d="m 389.445,-99.35 c 0,2.668 -2.164,4.833 -4.836,4.833 -2.668,0 -4.832,-2.165 -4.832,-4.833"
           style="fill:none;stroke:#0000cd;stroke-width:1.20822;stroke-linecap:butt;stroke-linejoin:bevel;stroke-miterlimit:10;stroke-dasharray:none;stroke-opacity:1"
           id="path1282" /></g><g
         id="g1284"
         transform="scale(1,-0.999819)"><path
           d="m 379.777,-99.35 c 0,2.668 -2.164,4.833 -4.832,4.833 -2.668,0 -4.832,-2.165 -4.832,-4.833"
           style="fill:none;stroke:#0000cd;stroke-width:1.20822;stroke-linecap:butt;stroke-linejoin:bevel;stroke-miterlimit:10;stroke-dasharray:none;stroke-opacity:1"
           id="path1286" /></g><g
         id="g1288"
         transform="scale(1,-0.999819)"><path
           d="m 399.109,-99.35 h 1.61 m -32.219,0 h 1.613 m 30.606,0 h 16.113 m -64.441,0 H 368.5"
           style="fill:none;stroke:#0000cd;stroke-width:1.20822;stroke-linecap:butt;stroke-linejoin:bevel;stroke-miterlimit:10;stroke-dasharray:none;stroke-opacity:1"
           id="path1290" /></g><g
         id="g1292"
         transform="scale(1,-0.999819)"><path
           d="m 356.016,-96.932 -1.61,-4.833"
           style="fill:none;stroke:#0000cd;stroke-width:1.20822;stroke-linecap:butt;stroke-linejoin:bevel;stroke-miterlimit:10;stroke-dasharray:none;stroke-opacity:1"
           id="path1294" /></g><g
         id="g1296"
         transform="matrix(0,0.999819,1,0,0,0)"><path
           d="m 132.376,171.16 c 0,0.887 -0.723,1.61 -1.614,1.61 -0.887,0 -1.61,-0.723 -1.61,-1.61 0,-0.89 0.723,-1.613 1.61,-1.613 0.891,0 1.614,0.723 1.614,1.613 z"
           style="fill:none;stroke:#0000cd;stroke-width:1.20822;stroke-linecap:butt;stroke-linejoin:bevel;stroke-miterlimit:10;stroke-dasharray:none;stroke-opacity:1"
           id="path1298" /></g><g
         id="g1300"
         transform="matrix(0,0.999819,1,0,0,0)"><path
           d="m 162.178,167.133 c 0,2.668 -2.165,4.832 -4.833,4.832 -2.668,0 -4.833,-2.164 -4.833,-4.832"
           style="fill:none;stroke:#0000cd;stroke-width:1.20822;stroke-linecap:butt;stroke-linejoin:bevel;stroke-miterlimit:10;stroke-dasharray:none;stroke-opacity:1"
           id="path1302" /></g><g
         id="g1304"
         transform="matrix(0,0.999819,1,0,0,0)"><path
           d="m 152.512,167.133 c 0,2.668 -2.164,4.832 -4.833,4.832 -2.668,0 -4.833,-2.164 -4.833,-4.832"
           style="fill:none;stroke:#0000cd;stroke-width:1.20822;stroke-linecap:butt;stroke-linejoin:bevel;stroke-miterlimit:10;stroke-dasharray:none;stroke-opacity:1"
           id="path1306" /></g><g
         id="g1308"
         transform="matrix(0,0.999819,1,0,0,0)"><path
           d="m 142.846,167.133 c 0,2.668 -2.164,4.832 -4.833,4.832 -2.668,0 -4.833,-2.164 -4.833,-4.832"
           style="fill:none;stroke:#0000cd;stroke-width:1.20822;stroke-linecap:butt;stroke-linejoin:bevel;stroke-miterlimit:10;stroke-dasharray:none;stroke-opacity:1"
           id="path1310" /></g><g
         id="g1312"
         transform="matrix(0,0.999819,1,0,0,0)"><path
           d="m 162.178,167.133 h 1.61 m -32.221,0 h 1.613 m 30.608,0 h 16.108 m -64.438,0 h 16.109"
           style="fill:none;stroke:#0000cd;stroke-width:1.20822;stroke-linecap:butt;stroke-linejoin:bevel;stroke-miterlimit:10;stroke-dasharray:none;stroke-opacity:1"
           id="path1314" /></g><g
         id="g1316"
         transform="matrix(0,0.999819,1,0,0,0)"><path
           d="m 119.084,169.547 -1.61,-4.832"
           style="fill:none;stroke:#0000cd;stroke-width:1.20822;stroke-linecap:butt;stroke-linejoin:bevel;stroke-miterlimit:10;stroke-dasharray:none;stroke-opacity:1"
           id="path1318" /></g><g
         id="g1320"
         transform="matrix(0,0.999819,1,0,0,0)"><path
           d="m 125.124,537.652 3.224,4.43 4.43,-8.859 4.43,8.859 4.431,-8.859 4.833,8.859 4.426,-8.859 3.224,4.429"
           style="fill:none;stroke:#0000cd;stroke-width:1.20822;stroke-linecap:butt;stroke-linejoin:bevel;stroke-miterlimit:10;stroke-dasharray:none;stroke-opacity:1"
           id="path1322" /></g><g
         id="g1324"
         transform="matrix(0,0.999819,1,0,0,0)"><path
           d="m 155.731,537.652 h 16.113 m -64.442,0 h 16.113 m 30.607,0 h 1.609 m -32.216,0 h 1.609"
           style="fill:none;stroke:#0000cd;stroke-width:1.20822;stroke-linecap:butt;stroke-linejoin:bevel;stroke-miterlimit:10;stroke-dasharray:none;stroke-opacity:1"
           id="path1326" /></g><g
         id="g1328"
         transform="matrix(0,0.999819,1,0,0,0)"><path
           d="m 111.833,539.664 -2.012,-4.027"
           style="fill:none;stroke:#0000cd;stroke-width:1.20822;stroke-linecap:butt;stroke-linejoin:bevel;stroke-miterlimit:10;stroke-dasharray:none;stroke-opacity:1"
           id="path1330" /></g><g
         id="g1332"
         transform="matrix(0,0.999819,1,0,0,0)"><path
           d="m 200.036,544.098 v -12.891 m 4.024,11.277 v -9.664 m -16.108,4.832 h 8.056 m 0,8.055 v -16.109"
           style="fill:none;stroke:#0000cd;stroke-width:1.20822;stroke-linecap:butt;stroke-linejoin:bevel;stroke-miterlimit:10;stroke-dasharray:none;stroke-opacity:1"
           id="path1334" /></g><text
         transform="matrix(1,0,0,0.99981865,269.02474,142.65835)"
         style="font-variant:normal;font-weight:normal;font-size:10.874px;font-family:'Arial For CAE';-inkscape-font-specification:ArialForCAE;writing-mode:lr-tb;fill:#000080;fill-opacity:1;fill-rule:nonzero;stroke:none"
         id="text1348"><tspan
           x="0 7.8510079 14.342769 20.432194 23.444284 29.555456 32.567547 38.678719"
           y="0"
           sodipodi:role="line"
           id="tspan1336">C=1.2 nF</tspan><tspan
           x="-2.4164357 3.6729884 10.186498 16.275923 22.365347 25.377436 31.488609"
           y="72.493149"
           sodipodi:role="line"
           id="tspan1338">L=10 uH</tspan><tspan
           x="-148.8961 -142.80667 -136.29317 -130.20375 -124.11432 -121.10223 -114.99106"
           y="5.0080948"
           sodipodi:role="line"
           id="tspan1340">L=10 uH</tspan><tspan
           x="100.28218 108.13319 114.62495 120.71438 123.72647 129.83765"
           y="-3.6246538"
           sodipodi:role="line"
           id="tspan1342">C=2 nF</tspan><tspan
           x="95.04657 101.13599 107.64951 113.73893 119.82835 122.84045 128.95161 -155.05478 -148.96536 -142.45184 -136.36243 -130.27299 -127.26091 -121.14974"
           y="-57.189026"
           sodipodi:role="line"
           id="tspan1344">L=10 uHL=10 uH</tspan><tspan
           x="193.31506 201.16606 207.65782 213.74725 216.75934 222.87051 278.26254 286.11353 292.60529 298.68384 304.77328 307.78537 316.07132 322.14987"
           y="1.0873972e-05"
           sodipodi:role="line"
           id="tspan1346">C=1 nFR=50 Ohm</tspan></text><g
         id="g1350"
         transform="matrix(1,0,0,-0.999819,0,-1.5)"><path
           d="m 47.52,-101.214 h -8.055 l -8.055,8.053 H 15.301 l -8.055,-8.053 8.055,-8.056 H 31.41 l 8.055,8.056"
           style="fill:none;stroke:#0000cd;stroke-width:1.20822;stroke-linecap:butt;stroke-linejoin:bevel;stroke-miterlimit:10;stroke-dasharray:none;stroke-opacity:1"
           id="path1352" /></g><g
         id="g1354"
         transform="scale(1,-0.999819)"><path
           d="m 369.578,-299.16406 h 8.055 l 8.055,-8.056 h 16.109 l 8.055,8.056 -8.055,8.057 h -16.109 l -8.055,-8.057"
           style="fill:none;stroke:#0000cd;stroke-width:1.20822;stroke-linecap:butt;stroke-linejoin:bevel;stroke-miterlimit:10;stroke-dasharray:none;stroke-opacity:1"
           id="path1356"
           sodipodi:nodetypes="cccccccc" /></g><path
         d="m 46.348,98.059 h 3.223 v 3.223 h -3.223 z"
         style="fill:#4169e1;fill-opacity:1;fill-rule:nonzero;stroke:none"
         id="path1358" /><path
         d="m 101.082,97.723 h 3.223 v 3.219 h -3.223 z"
         style="fill:#4169e1;fill-opacity:1;fill-rule:nonzero;stroke:none"
         id="path1360" /><path
         d="m 165.52,194.359 h 3.223 v 3.223 h -3.223 z"
         style="fill:#4169e1;fill-opacity:1;fill-rule:nonzero;stroke:none"
         id="path1362" /><path
         d="m 165.52,178.254 h 3.223 v 3.223 h -3.223 z"
         style="fill:#4169e1;fill-opacity:1;fill-rule:nonzero;stroke:none"
         id="path1364" /><path
         d="m 165.52,113.828 h 3.223 v 3.219 h -3.223 z"
         style="fill:#4169e1;fill-opacity:1;fill-rule:nonzero;stroke:none"
         id="path1366" /><path
         d="m 165.52,97.723 h 3.223 v 3.219 h -3.223 z"
         style="fill:#4169e1;fill-opacity:1;fill-rule:nonzero;stroke:none"
         id="path1368" /><path
         d="m 254.125,242.68 h 3.219 v 3.223 h -3.219 z"
         style="fill:#4169e1;fill-opacity:1;fill-rule:nonzero;stroke:none"
         id="path1370" /><path
         d="m 254.125,178.254 h 3.219 v 3.223 h -3.219 z"
         style="fill:#4169e1;fill-opacity:1;fill-rule:nonzero;stroke:none"
         id="path1372" /><path
         d="m 254.125,170.199 h 3.219 v 3.223 h -3.219 z"
         style="fill:#4169e1;fill-opacity:1;fill-rule:nonzero;stroke:none"
         id="path1374" /><path
         d="m 254.125,105.773 h 3.219 v 3.223 h -3.219 z"
         style="fill:#4169e1;fill-opacity:1;fill-rule:nonzero;stroke:none"
         id="path1376" /><path
         d="m 254.125,97.723 h 3.219 v 3.219 h -3.219 z"
         style="fill:#0000ff;fill-opacity:1;fill-rule:nonzero;stroke:none"
         id="path1378" /><path
         d="m 350.781,154.094 h 3.223 v 3.223 h -3.223 z"
         style="fill:#4169e1;fill-opacity:1;fill-rule:nonzero;stroke:none"
         id="path1380" /><path
         d="m 350.781,97.723 h 3.223 v 3.219 h -3.223 z"
         style="fill:#4169e1;fill-opacity:1;fill-rule:nonzero;stroke:none"
         id="path1382" /><path
         d="m 366.891,297.789 h 3.223 v 3.219 h -3.223 z"
         style="fill:#4169e1;fill-opacity:1;fill-rule:nonzero;stroke:none"
         id="path1384" /><path
         d="m 415.219,154.094 h 3.223 v 3.223 h -3.223 z"
         style="fill:#4169e1;fill-opacity:1;fill-rule:nonzero;stroke:none"
         id="path1386" /><path
         d="m 415.219,97.723 h 3.223 v 3.219 h -3.223 z"
         style="fill:#4169e1;fill-opacity:1;fill-rule:nonzero;stroke:none"
         id="path1388" /><path
         d="m 447.438,186.309 h 3.223 v 3.219 h -3.223 z"
         style="fill:#4169e1;fill-opacity:1;fill-rule:nonzero;stroke:none"
         id="path1390" /><path
         d="m 447.438,170.199 h 3.223 v 3.223 h -3.223 z"
         style="fill:#4169e1;fill-opacity:1;fill-rule:nonzero;stroke:none"
         id="path1392" /><path
         d="m 447.438,105.773 h 3.223 v 3.223 h -3.223 z"
         style="fill:#4169e1;fill-opacity:1;fill-rule:nonzero;stroke:none"
         id="path1394" /><path
         d="m 447.438,97.723 h 3.223 v 3.219 h -3.223 z"
         style="fill:#0000ff;fill-opacity:1;fill-rule:nonzero;stroke:none"
         id="path1396" /><path
         d="m 536.043,186.309 h 3.219 v 3.219 h -3.219 z"
         style="fill:#4169e1;fill-opacity:1;fill-rule:nonzero;stroke:none"
         id="path1398" /><path
         d="m 536.043,170.199 h 3.219 v 3.223 h -3.219 z"
         style="fill:#4169e1;fill-opacity:1;fill-rule:nonzero;stroke:none"
         id="path1400" /><path
         d="m 536.043,105.773 h 3.219 v 3.223 h -3.219 z"
         style="fill:#4169e1;fill-opacity:1;fill-rule:nonzero;stroke:none"
         id="path1402" /><path
         d="m 294.398,97.723 h 3.223 v 3.219 h -3.223 z"
         style="fill:#ff0000;fill-opacity:1;fill-rule:nonzero;stroke:none"
         id="path1404" /><g
         id="g1406"
         transform="scale(1,-0.999819)"><path
           d="m 296.008,-102.573 3.222,3.223 -3.222,3.223 -3.223,-3.223 z"
           style="fill:none;stroke:#ff0000;stroke-width:0.40274;stroke-linecap:square;stroke-linejoin:bevel;stroke-miterlimit:10;stroke-dasharray:none;stroke-opacity:1"
           id="path1408" /></g><path
         d="m 318.562,97.723 h 3.223 v 3.219 h -3.223 z"
         style="fill:#ff0000;fill-opacity:1;fill-rule:nonzero;stroke:none"
         id="path1410" /><g
         id="g1412"
         transform="scale(1,-0.999819)"><path
           d="m 320.172,-102.573 3.223,3.223 -3.223,3.223 -3.223,-3.223 z"
           style="fill:none;stroke:#ff0000;stroke-width:0.40274;stroke-linecap:square;stroke-linejoin:bevel;stroke-miterlimit:10;stroke-dasharray:none;stroke-opacity:1"
           id="path1414" /></g><g
         id="g1416"><path
           d="m 236.543,119.809 h 83.629 v 118.98 h -83.629 z"
           style="fill:none;stroke:#000000;stroke-width:1.41732;stroke-linecap:butt;stroke-linejoin:miter;stroke-miterlimit:4;stroke-dasharray:11.3385, 11.3385;stroke-dashoffset:0;stroke-opacity:1"
           id="path1418" /></g><g
         id="g1420"><path
           d="M 99.387,70.353615 H 204.336 V 183.094 H 99.387 Z"
           style="fill:none;stroke:#000000;stroke-width:1.41732;stroke-linecap:butt;stroke-linejoin:miter;stroke-miterlimit:4;stroke-dasharray:11.3385, 11.3385;stroke-dashoffset:0;stroke-opacity:1"
           id="path1422"
           sodipodi:nodetypes="ccccc" /></g><g
         id="g1424"><path
           d="M 341.09,70.082 H 504.789 V 185.316 H 341.09 Z"
           style="fill:none;stroke:#000000;stroke-width:1.41732;stroke-linecap:butt;stroke-linejoin:miter;stroke-miterlimit:4;stroke-dasharray:11.3385, 11.3385;stroke-dashoffset:0;stroke-opacity:1"
           id="path1426" /></g><text
         style="font-variant:normal;font-weight:bold;font-size:12px;font-family:'Times New Roman';-inkscape-font-specification:TimesNewRomanPS-BoldMT;writing-mode:lr-tb;fill:#000000;fill-opacity:1;fill-rule:nonzero;stroke:none"
         id="text1432"
         x="549.95764"
         y="157.459"><tspan
           x="549.95764 558.62164 564.62164 574.61761 584.61365 591.28564 597.95764 601.28162 606.5976 612.5976 616.59363 619.9176 625.9176"
           y="157.459"
           sodipodi:role="line"
           id="tspan1428">Communication</tspan><tspan
           x="549.95764 553.28162 559.28162 565.28162"
           y="172.459"
           sodipodi:role="line"
           id="tspan1430">load</tspan></text><g
         id="g1454"
         transform="scale(1,-1)"><path
           d="m 296.008,-99.332 24.504,11.273"
           style="fill:none;stroke:#000000;stroke-width:0.75;stroke-linecap:butt;stroke-linejoin:miter;stroke-miterlimit:4;stroke-dasharray:none;stroke-opacity:1"
           id="path1456" /></g><g
         id="g1458"
         transform="scale(1,-1)"
         style="stroke:#00a000;stroke-opacity:1"><path
           d="M 547.6065,-18.245999 H 312.57 V -86.172"
           style="fill:none;stroke:#00a000;stroke-width:0.75;stroke-linecap:butt;stroke-linejoin:miter;stroke-miterlimit:4;stroke-dasharray:none;stroke-opacity:1"
           id="path1460"
           sodipodi:nodetypes="ccc" /></g><g
         id="g1462"
         transform="matrix(0,-1,-1,0,0,0)"
         style="stroke:#00a000;stroke-opacity:1"><path
           d="m -78.672,-312.57 3,-3 -10.5,3 10.5,3 z"
           style="fill:#00a000;fill-opacity:1;fill-rule:evenodd;stroke:#00a000;stroke-width:0.8;stroke-linecap:butt;stroke-linejoin:miter;stroke-miterlimit:4;stroke-dasharray:none;stroke-opacity:1"
           id="path1464" /></g><g
         id="g1466"
         transform="matrix(1,0,0,-1,109.52007,3.285602)"
         style="stroke:#00a000;stroke-opacity:1"><path
           d="m 337.254,-9.1089994 h 9.898 V 22.113001 h 17.516 V -9.1089994 H 376.09 V 22.875001 h 9.14 V -9.1089994 h 16.754 V 22.875001 h 19.797 V -9.1089994 h 22.848"
           style="fill:none;stroke:#00a000;stroke-width:0.75;stroke-linecap:butt;stroke-linejoin:miter;stroke-miterlimit:4;stroke-dasharray:none;stroke-opacity:1"
           id="path1468"
           sodipodi:nodetypes="cccccccccccccc" /></g><text
         transform="translate(0.316406,85.123386)"
         style="font-variant:normal;font-weight:bold;font-size:12px;font-family:'Times New Roman';-inkscape-font-specification:TimesNewRomanPS-BoldMT;writing-mode:lr-tb;fill:#000000;fill-opacity:1;fill-rule:nonzero;stroke:none"
         id="text1472"><tspan
           x="0 7.1040001 12.42 18.42 25.091999 29.76 36.431999 43.104 48.419998 53.736"
           y="0"
           sodipodi:role="line"
           id="tspan1470">Transducer</tspan></text><text
         style="font-variant:normal;font-weight:bold;font-size:12px;font-family:'Times New Roman';-inkscape-font-specification:TimesNewRomanPS-BoldMT;writing-mode:lr-tb;fill:#000000;fill-opacity:1;fill-rule:nonzero;stroke:none"
         id="text1472-1"
         x="34.99984"
         y="165.20036"><tspan
           sodipodi:role="line"
           id="tspan1470-5"
           x="34.99984"
           y="165.20036">Impedance</tspan><tspan
           sodipodi:role="line"
           x="34.99984"
           y="180.95474"
           id="tspan23729">matching</tspan></text><text
         style="font-variant:normal;font-weight:bold;font-size:12px;font-family:'Times New Roman';-inkscape-font-specification:TimesNewRomanPS-BoldMT;writing-mode:lr-tb;fill:#000000;fill-opacity:1;fill-rule:nonzero;stroke:none"
         id="text1472-1-8"
         x="326.53253"
         y="216.03107"><tspan
           sodipodi:role="line"
           x="326.53253"
           y="216.03107"
           id="tspan23729-5">Narrow</tspan><tspan
           sodipodi:role="line"
           x="326.53253"
           y="231.78545"
           id="tspan30264">bandpass</tspan><tspan
           sodipodi:role="line"
           x="326.53253"
           y="247.53983"
           id="tspan30266">filter</tspan></text><text
         style="font-variant:normal;font-weight:bold;font-size:12px;font-family:'Times New Roman';-inkscape-font-specification:TimesNewRomanPS-BoldMT;writing-mode:lr-tb;fill:#000000;fill-opacity:1;fill-rule:nonzero;stroke:none"
         id="text1472-1-80"
         x="403.19653"
         y="61.60778"><tspan
           sodipodi:role="line"
           x="403.19653"
           y="61.60778"
           id="tspan23729-4">Bandstop filter</tspan></text><text
         style="font-variant:normal;font-weight:bold;font-size:12px;font-family:'Times New Roman';-inkscape-font-specification:TimesNewRomanPS-BoldMT;writing-mode:lr-tb;fill:#00a000;fill-opacity:1;fill-rule:nonzero;stroke:none"
         id="text1472-80"
         x="333.06799"
         y="12.29463"><tspan
           sodipodi:role="line"
           id="tspan1470-8"
           x="333.06799"
           y="12.29463">Backscatter data</tspan></text><text
         style="font-variant:normal;font-weight:bold;font-size:12px;font-family:'Times New Roman';-inkscape-font-specification:TimesNewRomanPS-BoldMT;writing-mode:lr-tb;fill:#d00000;fill-opacity:1;fill-rule:nonzero;stroke:none;stroke-opacity:1"
         id="text1472-8"
         x="48.757092"
         y="65.033951"><tspan
           sodipodi:role="line"
           id="tspan1470-2"
           x="48.757092"
           y="65.033951">Power</tspan></text><text
         style="font-variant:normal;font-weight:bold;font-size:12px;font-family:'Times New Roman';-inkscape-font-specification:TimesNewRomanPS-BoldMT;writing-mode:lr-tb;fill:#00a000;fill-opacity:1;fill-rule:nonzero;stroke:none"
         id="text1472-8-5"
         x="47.891434"
         y="40.288536"><tspan
           sodipodi:role="line"
           id="tspan1470-2-7"
           x="47.891434"
           y="40.288536">Data</tspan></text><path
         style="fill:none;stroke:#d00000;stroke-width:2.83465;stroke-linecap:butt;stroke-linejoin:miter;stroke-miterlimit:4;stroke-dasharray:none;stroke-opacity:1;marker-end:url(#Arrow1Mend)"
         d="M 41.617626,53.664825 H 192.05711 c 21.60762,-0.339096 30.65584,8.787753 30.26863,27.649668 V 264.30094"
         id="path9995"
         sodipodi:nodetypes="cccc" /><path
         style="fill:none;stroke:#00a000;stroke-width:0.75px;stroke-linecap:butt;stroke-linejoin:miter;stroke-opacity:1;marker-end:url(#marker23552)"
         d="M 40.117626,44.664825 H 282.96657 c 10.18718,-0.0068 9.57411,-13.220872 0,-13.142408 H 133.20969"
         id="path9997"
         sodipodi:nodetypes="cccc" /><text
         xml:space="preserve"
         style="font-size:12px;line-height:1.25;font-family:'Times New Roman';-inkscape-font-specification:'Times New Roman, ';font-variant-ligatures:none;letter-spacing:0px;word-spacing:0px;stroke-width:0.75"
         x="418.09769"
         y="281.61115"
         id="text27831"><tspan
           sodipodi:role="line"
           id="tspan27829"
           style="font-style:normal;font-variant:normal;font-weight:bold;font-stretch:normal;font-size:12px;font-family:'Times New Roman';-inkscape-font-specification:'Times New Roman,  Bold';stroke-width:0.75"
           x="418.09769"
           y="281.61115">To energy harvesting </tspan><tspan
           sodipodi:role="line"
           style="font-style:normal;font-variant:normal;font-weight:bold;font-stretch:normal;font-size:12px;font-family:'Times New Roman';-inkscape-font-specification:'Times New Roman,  Bold';stroke-width:0.75"
           x="418.09769"
           y="296.66254"
           id="tspan28419">circuit</tspan></text></g></g></svg>
